/* XPM */
static const char* xpm_remove1[] = {
/* columns rows colors chars-per-pixel */
"16 15 3 1",
"  c black",
". c #3365B7",
"X c None",
/* pixels */
"XXXXXXXXXXXXXXXX",
"XXXXXXXXXXXXXXXX",
"XX..XXXXXXXX..XX",
"XXX..XXXXXX..XXX",
"XXXX..XXXX..XXXX",
"XXXXX..XX..XXXXX",
"XXXXXX....XXXXXX",
"XXXXXXX..XXXXXXX",
"XXXXXX....XXXXXX",
"XXXXX..XX..XXX X",
"XXXX..XXXX.XXX X",
"XXX..XXXXXXXXX X",
"XX..XXXXXXXXXX X",
"XXXXXXXXXXXXXX X",
"XXXXXXXXXXXXXXXX"
};
