/* XPM */
static const char* clusterlines_xpm[] = {
/* columns rows colors chars-per-pixel */
"16 15 3 1",
"  c black",
"X c red",
". c None",
/* pixels */
"................",
"................",
"....... ........",
"...... X .......",
".... . .X ......",
".. ... .X. .....",
". ... ...X. ....",
"..... ...X.. ...",
"..... ....X.. ..",
".... .....X... .",
".... ......X....",
".... ......X....",
".. .........X...",
".. .........X...",
"................"
};
