/* XPM */
static const char* gradient_plus_xpm[] = {
/* columns rows colors chars-per-pixel */
"16 15 2 1",
"  c black",
". c None",
/* pixels */
"................",
"................",
"..........    ..",
"........  ......",
".......  .......",
"....... ........",
"....... ........",
"....... ........",
"....... ........",
"....... ........",
"......  .... ...",
".....  ..... ...",
".    .....     .",
"............ ...",
"............ ..."
};
