/* XPM */
static const char* xpm_select[] = {
/* columns rows colors chars-per-pixel */
"16 15 3 1",
"  c black",
". c #3365B7",
"X c None",
/* pixels */
"XXXXXXXXXXXXXXXX",
"XXXXXXXXXXXXXXXX",
"XXX.X.X.X.X.X.XX",
"XXXXXXXXXXXXX.XX",
"XXX.XXXXXXXXXXXX",
"XXXXXXXXXXXXX.XX",
"XXX.XXXXXXXXXXXX",
"XXXXXXXXXXXXX.XX",
"XXX.XXXXXXXXXXXX",
"XXXXXXXXXXXXX.XX",
"XXX.XXXXXXXXX XX",
"XXX.X.X.X.X.   X",
"XXXXXXXXXXXXX XX",
"XXXXXXXXXXXXXXXX",
"XXXXXXXXXXXXXXXX"
};
