/* XPM */
static const char* toggledisplay_xpm[] = {
/* columns rows colors chars-per-pixel */
"16 15 4 1",
"  c black",
"X c #808080",
"T c #3365B7",
". c None",
/* pixels */
"................",
".............T..",
"............T...",
"...........T....",
". ....    T X X.",
".. ......T......",
"... ....T.......",
".... ..T........",
"..... T.........",
".....T .........",
"....T..X........",
"...T.... .......",
"..T......X......",
".T..............",
"...........X...."
};
